<svg id="Group_362" data-name="Group 362" xmlns="http://www.w3.org/2000/svg" width="24" height="24" viewBox="0 0 24 24">
  <g id="Rectangle_100" data-name="Rectangle 100" fill="#fff" stroke="#707070" stroke-width="1" opacity="0">
    <rect width="24" height="24" stroke="none"/>
    <rect x="0.5" y="0.5" width="23" height="23" fill="none"/>
  </g>
  <g id="copy" transform="translate(6.294 2.822)">
    <path id="Path_406" data-name="Path 406" d="M9.133,2V3.313H1.313v9.133H0V3.313a1.267,1.267,0,0,1,.382-.932A1.267,1.267,0,0,1,1.313,2Zm1.955,2.627A1.3,1.3,0,0,1,12.37,5.91v9.133a1.267,1.267,0,0,1-.382.932,1.232,1.232,0,0,1-.9.382H3.91A1.3,1.3,0,0,1,2.6,15.042V5.91a1.232,1.232,0,0,1,.382-.9,1.267,1.267,0,0,1,.932-.382Zm0,10.415V5.91H3.91v9.133Z" fill="#cf8019"/>
  </g>
</svg>
