<svg id="Group_347" data-name="Group 347" xmlns="http://www.w3.org/2000/svg" width="24" height="24" viewBox="0 0 24 24">
  <g id="Rectangle_95" data-name="Rectangle 95" fill="#fff" stroke="#707070" stroke-width="1" opacity="0">
    <rect width="24" height="24" stroke="none"/>
    <rect x="0.5" y="0.5" width="23" height="23" fill="none"/>
  </g>
  <g id="view-filled" transform="translate(-2.609 -24.245)">
    <circle id="Ellipse_1" data-name="Ellipse 1" cx="2.337" cy="2.337" r="2.337" transform="translate(12.314 34.056)" fill="#cf8019"/>
    <path id="Path_403" data-name="Path 403" d="M23.182,36.117A9.577,9.577,0,0,0,14.61,30a9.577,9.577,0,0,0-8.573,6.117.574.574,0,0,0,0,.39,9.577,9.577,0,0,0,8.573,6.117,9.577,9.577,0,0,0,8.573-6.117A.574.574,0,0,0,23.182,36.117ZM14.61,40.042a3.73,3.73,0,1,1,3.73-3.73A3.73,3.73,0,0,1,14.61,40.042Z" fill="#cf8019"/>
  </g>
</svg>
